<svg xmlns="http://www.w3.org/2000/svg" xmlns:xlink="http://www.w3.org/1999/xlink" height="800px" width="800px" version="1.1" id="Layer_1" viewBox="0 0 512 512" xml:space="preserve">
<path style="fill:#E8D6BD;" d="M492.936,455.492l-6.405,22.419c-2.473,8.639-11.841,15.709-20.829,15.709H73.532  c-8.987,0-18.356-7.07-20.829-15.709l-6.405-22.419H492.936z"/>
<path style="fill:#D2BA9C;" d="M26.014,176.343C14.794,191.735,8.17,210.668,8.17,231.137c0,51.407,41.821,93.238,93.238,93.238  h7.527v65.754c0,17.974,14.706,32.681,32.681,32.681h256c17.974,0,32.681-14.706,32.681-32.681V176.343L26.014,176.343  L26.014,176.343z M108.936,291.695h-7.527c-33.389,0-60.558-27.169-60.558-60.558c0-7.669,1.427-15.142,4.172-22.114h63.913V291.695  z"/>
<g>
	<path style="fill:#FFFFFF;" d="M386.723,387.406c-4.513,0-8.17-3.658-8.17-8.17V252.594c0-4.512,3.657-8.17,8.17-8.17   c4.513,0,8.17,3.658,8.17,8.17v126.643C394.894,383.748,391.237,387.406,386.723,387.406z"/>
	<path style="fill:#FFFFFF;" d="M386.723,228.083c-4.513,0-8.17-3.658-8.17-8.17v-43.574c0-4.512,3.657-8.17,8.17-8.17   c4.513,0,8.17,3.658,8.17,8.17v43.574C394.894,224.425,391.237,228.083,386.723,228.083z"/>
</g>
<g>
	<path style="fill:#700D00;" d="M100.766,332.54v57.59c0,22.526,18.325,40.851,40.851,40.851h256   c22.526,0,40.851-18.325,40.851-40.851V176.338c0-4.512-3.657-8.17-8.17-8.17H26.013c-2.61,0-5.064,1.248-6.604,3.358   C6.712,188.951,0,209.563,0,231.134C0,286.835,45.145,332.191,100.766,332.54z M30.288,184.508h391.84V390.13   c0,13.516-10.996,24.511-24.511,24.511h-256c-13.515,0-24.511-10.995-24.511-24.511v-65.758c0-4.512-3.657-8.17-8.17-8.17h-7.53   c-46.906,0-85.066-38.161-85.066-85.067C16.34,214.413,21.15,198.377,30.288,184.508z"/>
	<path style="fill:#700D00;" d="M101.406,299.861h7.53c4.513,0,8.17-3.658,8.17-8.17v-82.672c0-4.512-3.657-8.17-8.17-8.17H45.025   c-3.355,0-6.371,2.051-7.602,5.173c-3.147,7.984-4.743,16.432-4.743,25.112C32.681,269.03,63.511,299.861,101.406,299.861z    M50.897,217.189h49.869v66.327c-28.591-0.343-51.745-23.71-51.745-52.382C49.021,226.366,49.65,221.696,50.897,217.189z"/>
	<path style="fill:#700D00;" d="M503.83,447.321H35.404c-4.513,0-8.17,3.658-8.17,8.17c0,4.512,3.657,8.17,8.17,8.17h4.731   l4.711,16.491c3.466,12.133,16.066,21.637,28.685,21.637h392.17c12.619,0,25.219-9.505,28.686-21.637l4.712-16.491h4.73   c4.513,0,8.17-3.658,8.17-8.17C512,450.979,508.343,447.321,503.83,447.321z M478.676,475.663   c-1.464,5.122-7.648,9.786-12.974,9.786H73.532c-5.327,0-11.51-4.665-12.973-9.786l-3.429-12.001h424.975L478.676,475.663z"/>
</g>
<g>
	<path style="fill:#E8D6BD;" d="M231.489,151.828c-4.513,0-8.17-3.658-8.17-8.17c0-12.443,3.386-18.932,6.374-24.658   c2.525-4.839,4.52-8.663,4.52-17.098c0-8.437-1.995-12.261-4.52-17.102c-2.988-5.726-6.374-12.216-6.374-24.659   s3.386-18.933,6.374-24.66c2.525-4.84,4.52-8.664,4.52-17.101c0-4.512,3.657-8.17,8.17-8.17c4.513,0,8.17,3.658,8.17,8.17   c0,12.443-3.386,18.933-6.374,24.66c-2.525,4.84-4.52,8.664-4.52,17.101s1.995,12.261,4.52,17.101   c2.988,5.727,6.374,12.217,6.374,24.66c0,12.442-3.386,18.931-6.374,24.657c-2.525,4.84-4.52,8.663-4.52,17.099   C239.66,148.17,236.003,151.828,231.489,151.828z"/>
	<path style="fill:#E8D6BD;" d="M296.851,151.828c-4.513,0-8.17-3.658-8.17-8.17c0-12.443,3.386-18.932,6.374-24.658   c2.525-4.839,4.52-8.663,4.52-17.098c0-8.437-1.995-12.261-4.52-17.102c-2.988-5.726-6.374-12.216-6.374-24.659   s3.386-18.933,6.374-24.66c2.525-4.84,4.52-8.664,4.52-17.101c0-4.512,3.657-8.17,8.17-8.17c4.513,0,8.17,3.658,8.17,8.17   c0,12.443-3.386,18.933-6.374,24.66c-2.525,4.84-4.52,8.664-4.52,17.101s1.995,12.261,4.52,17.101   c2.988,5.727,6.374,12.217,6.374,24.66c0,12.442-3.386,18.931-6.374,24.657c-2.525,4.84-4.52,8.663-4.52,17.099   C305.021,148.17,301.364,151.828,296.851,151.828z"/>
</g>
</svg>